# xmcd CD database file
#
# Track frame offsets:
#	150
#	14556
#	25908
#	40960
#	54852
#	83464
#	100265
#	111747
#	134546
#	148163
#	164240
#	178013
#	190789
#	204521
#	217647
#
# Disc length: 3085 seconds
#
# Revision: 3
# Processed by: cddbd v1.5.2PL0 Copyright (c) Steve Scherf et al.
# Submitted via: CDex 1.51
#
DISCID=d60c0b0f
DTITLE=Louis Armstrong - Vol.09 - I'm In The Mood For You
DYEAR=1900
DGENRE=Jazz
TTITLE0=I'm In The Mood For You
TTITLE1=I've Got My Fingers Crossed
TTITLE2=Now Do You Call That A Buddy
TTITLE3=Dream A Little Dream Of Me
TTITLE4=Just You, Just  Me
TTITLE5=Big Daddy Blues
TTITLE6=Necessary Evil
TTITLE7=Panama
TTITLE8=That's A Plenty
TTITLE9=The Hucklebuck
TTITLE10=Perdido Street Blues
TTITLE11=2:19 Blues
TTITLE12=Down In Honky Tonk Town
TTITLE13=Coal Cart Blues
TTITLE14=Ev'rything's Been Done Before
EXTD=
EXTT0=
EXTT1=
EXTT2=
EXTT3=
EXTT4=
EXTT5=
EXTT6=
EXTT7=
EXTT8=
EXTT9=
EXTT10=
EXTT11=
EXTT12=
EXTT13=
EXTT14=
PLAYORDER=
